<?xml version="1.0" encoding="UTF-8" standalone="no"?>
<!DOCTYPE svg PUBLIC "-//W3C//DTD SVG 1.1//EN" "http://www.w3.org/Graphics/SVG/1.1/DTD/svg11.dtd">
<svg xmlns="http://www.w3.org/2000/svg" xmlns:xlink="http://www.w3.org/1999/xlink" version="1.1" width="726pt" height="726pt" viewBox="24 24 678 678">
<g enable-background="new">
<clipPath id="cp0">
<path transform="matrix(1,0,0,-1,0,726)" d="M 0 726 L 0 0 L 726 0 L 726 726 Z "/>
</clipPath>
<g clip-path="url(#cp0)">
<path transform="matrix(1,0,0,-1,0,726)" d="M 0 726 L 726 726 L 726 0 L 0 0 L 0 726 Z "/>
<path transform="matrix(1,0,0,-1,0,726)" stroke-width=".25" stroke-linecap="round" stroke-miterlimit="10" stroke-linejoin="miter" fill="none" stroke="#ffffff" d="M 22 715 L 22 704 "/>
<path transform="matrix(1,0,0,-1,0,726)" stroke-width=".25" stroke-linecap="round" stroke-miterlimit="10" stroke-linejoin="miter" fill="none" stroke="#ffffff" d="M 33 715 L 44 693 "/>
<path transform="matrix(1,0,0,-1,0,726)" stroke-width=".25" stroke-linecap="round" stroke-miterlimit="10" stroke-linejoin="miter" fill="none" stroke="#ffffff" d="M 44 715 L 66 682 "/>
<path transform="matrix(1,0,0,-1,0,726)" stroke-width=".25" stroke-linecap="round" stroke-miterlimit="10" stroke-linejoin="miter" fill="none" stroke="#ffffff" d="M 55 715 L 88 671 "/>
<path transform="matrix(1,0,0,-1,0,726)" stroke-width=".25" stroke-linecap="round" stroke-miterlimit="10" stroke-linejoin="miter" fill="none" stroke="#ffffff" d="M 66 715 L 110 660 "/>
<path transform="matrix(1,0,0,-1,0,726)" stroke-width=".25" stroke-linecap="round" stroke-miterlimit="10" stroke-linejoin="miter" fill="none" stroke="#ffffff" d="M 77 715 L 132 649 "/>
<path transform="matrix(1,0,0,-1,0,726)" stroke-width=".25" stroke-linecap="round" stroke-miterlimit="10" stroke-linejoin="miter" fill="none" stroke="#ffffff" d="M 88 715 L 154 638 "/>
<path transform="matrix(1,0,0,-1,0,726)" stroke-width=".25" stroke-linecap="round" stroke-miterlimit="10" stroke-linejoin="miter" fill="none" stroke="#ffffff" d="M 99 715 L 176 627 "/>
<path transform="matrix(1,0,0,-1,0,726)" stroke-width=".25" stroke-linecap="round" stroke-miterlimit="10" stroke-linejoin="miter" fill="none" stroke="#ffffff" d="M 110 715 L 198 616 "/>
<path transform="matrix(1,0,0,-1,0,726)" stroke-width=".25" stroke-linecap="round" stroke-miterlimit="10" stroke-linejoin="miter" fill="none" stroke="#ffffff" d="M 121 715 L 220 605 "/>
<path transform="matrix(1,0,0,-1,0,726)" stroke-width=".25" stroke-linecap="round" stroke-miterlimit="10" stroke-linejoin="miter" fill="none" stroke="#ffffff" d="M 132 715 L 242 594 "/>
<path transform="matrix(1,0,0,-1,0,726)" stroke-width=".25" stroke-linecap="round" stroke-miterlimit="10" stroke-linejoin="miter" fill="none" stroke="#ffffff" d="M 143 715 L 264 583 "/>
<path transform="matrix(1,0,0,-1,0,726)" stroke-width=".25" stroke-linecap="round" stroke-miterlimit="10" stroke-linejoin="miter" fill="none" stroke="#ffffff" d="M 154 715 L 286 572 "/>
<path transform="matrix(1,0,0,-1,0,726)" stroke-width=".25" stroke-linecap="round" stroke-miterlimit="10" stroke-linejoin="miter" fill="none" stroke="#ffffff" d="M 165 715 L 308 561 "/>
<path transform="matrix(1,0,0,-1,0,726)" stroke-width=".25" stroke-linecap="round" stroke-miterlimit="10" stroke-linejoin="miter" fill="none" stroke="#ffffff" d="M 176 715 L 330 550 "/>
<path transform="matrix(1,0,0,-1,0,726)" stroke-width=".25" stroke-linecap="round" stroke-miterlimit="10" stroke-linejoin="miter" fill="none" stroke="#ffffff" d="M 187 715 L 352 539 "/>
<path transform="matrix(1,0,0,-1,0,726)" stroke-width=".25" stroke-linecap="round" stroke-miterlimit="10" stroke-linejoin="miter" fill="none" stroke="#ffffff" d="M 198 715 L 374 528 "/>
<path transform="matrix(1,0,0,-1,0,726)" stroke-width=".25" stroke-linecap="round" stroke-miterlimit="10" stroke-linejoin="miter" fill="none" stroke="#ffffff" d="M 209 715 L 396 517 "/>
<path transform="matrix(1,0,0,-1,0,726)" stroke-width=".25" stroke-linecap="round" stroke-miterlimit="10" stroke-linejoin="miter" fill="none" stroke="#ffffff" d="M 220 715 L 418 506 "/>
<path transform="matrix(1,0,0,-1,0,726)" stroke-width=".25" stroke-linecap="round" stroke-miterlimit="10" stroke-linejoin="miter" fill="none" stroke="#ffffff" d="M 231 715 L 440 495 "/>
<path transform="matrix(1,0,0,-1,0,726)" stroke-width=".25" stroke-linecap="round" stroke-miterlimit="10" stroke-linejoin="miter" fill="none" stroke="#ffffff" d="M 242 715 L 462 484 "/>
<path transform="matrix(1,0,0,-1,0,726)" stroke-width=".25" stroke-linecap="round" stroke-miterlimit="10" stroke-linejoin="miter" fill="none" stroke="#ffffff" d="M 253 715 L 484 473 "/>
<path transform="matrix(1,0,0,-1,0,726)" stroke-width=".25" stroke-linecap="round" stroke-miterlimit="10" stroke-linejoin="miter" fill="none" stroke="#ffffff" d="M 264 715 L 506 462 "/>
<path transform="matrix(1,0,0,-1,0,726)" stroke-width=".25" stroke-linecap="round" stroke-miterlimit="10" stroke-linejoin="miter" fill="none" stroke="#ffffff" d="M 275 715 L 528 451 "/>
<path transform="matrix(1,0,0,-1,0,726)" stroke-width=".25" stroke-linecap="round" stroke-miterlimit="10" stroke-linejoin="miter" fill="none" stroke="#ffffff" d="M 286 715 L 550 440 "/>
<path transform="matrix(1,0,0,-1,0,726)" stroke-width=".25" stroke-linecap="round" stroke-miterlimit="10" stroke-linejoin="miter" fill="none" stroke="#ffffff" d="M 297 715 L 572 429 "/>
<path transform="matrix(1,0,0,-1,0,726)" stroke-width=".25" stroke-linecap="round" stroke-miterlimit="10" stroke-linejoin="miter" fill="none" stroke="#ffffff" d="M 308 715 L 594 418 "/>
<path transform="matrix(1,0,0,-1,0,726)" stroke-width=".25" stroke-linecap="round" stroke-miterlimit="10" stroke-linejoin="miter" fill="none" stroke="#ffffff" d="M 319 715 L 616 407 "/>
<path transform="matrix(1,0,0,-1,0,726)" stroke-width=".25" stroke-linecap="round" stroke-miterlimit="10" stroke-linejoin="miter" fill="none" stroke="#ffffff" d="M 330 715 L 638 396 "/>
<path transform="matrix(1,0,0,-1,0,726)" stroke-width=".25" stroke-linecap="round" stroke-miterlimit="10" stroke-linejoin="miter" fill="none" stroke="#ffffff" d="M 341 715 L 660 385 "/>
<path transform="matrix(1,0,0,-1,0,726)" stroke-width=".25" stroke-linecap="round" stroke-miterlimit="10" stroke-linejoin="miter" fill="none" stroke="#ffffff" d="M 352 715 L 682 374 "/>
<path transform="matrix(1,0,0,-1,0,726)" stroke-width=".25" stroke-linecap="round" stroke-miterlimit="10" stroke-linejoin="miter" fill="none" stroke="#ffffff" d="M 363 715 L 704 363 "/>
<path transform="matrix(1,0,0,-1,0,726)" stroke-width=".25" stroke-linecap="round" stroke-miterlimit="10" stroke-linejoin="miter" fill="none" stroke="#ffffff" d="M 374 715 L 715 352 "/>
<path transform="matrix(1,0,0,-1,0,726)" stroke-width=".25" stroke-linecap="round" stroke-miterlimit="10" stroke-linejoin="miter" fill="none" stroke="#ffffff" d="M 385 715 L 715 341 "/>
<path transform="matrix(1,0,0,-1,0,726)" stroke-width=".25" stroke-linecap="round" stroke-miterlimit="10" stroke-linejoin="miter" fill="none" stroke="#ffffff" d="M 396 715 L 715 330 "/>
<path transform="matrix(1,0,0,-1,0,726)" stroke-width=".25" stroke-linecap="round" stroke-miterlimit="10" stroke-linejoin="miter" fill="none" stroke="#ffffff" d="M 407 715 L 715 319 "/>
<path transform="matrix(1,0,0,-1,0,726)" stroke-width=".25" stroke-linecap="round" stroke-miterlimit="10" stroke-linejoin="miter" fill="none" stroke="#ffffff" d="M 418 715 L 715 308 "/>
<path transform="matrix(1,0,0,-1,0,726)" stroke-width=".25" stroke-linecap="round" stroke-miterlimit="10" stroke-linejoin="miter" fill="none" stroke="#ffffff" d="M 429 715 L 715 297 "/>
<path transform="matrix(1,0,0,-1,0,726)" stroke-width=".25" stroke-linecap="round" stroke-miterlimit="10" stroke-linejoin="miter" fill="none" stroke="#ffffff" d="M 440 715 L 715 286 "/>
<path transform="matrix(1,0,0,-1,0,726)" stroke-width=".25" stroke-linecap="round" stroke-miterlimit="10" stroke-linejoin="miter" fill="none" stroke="#ffffff" d="M 451 715 L 715 275 "/>
<path transform="matrix(1,0,0,-1,0,726)" stroke-width=".25" stroke-linecap="round" stroke-miterlimit="10" stroke-linejoin="miter" fill="none" stroke="#ffffff" d="M 462 715 L 715 264 "/>
<path transform="matrix(1,0,0,-1,0,726)" stroke-width=".25" stroke-linecap="round" stroke-miterlimit="10" stroke-linejoin="miter" fill="none" stroke="#ffffff" d="M 473 715 L 715 253 "/>
<path transform="matrix(1,0,0,-1,0,726)" stroke-width=".25" stroke-linecap="round" stroke-miterlimit="10" stroke-linejoin="miter" fill="none" stroke="#ffffff" d="M 484 715 L 715 242 "/>
<path transform="matrix(1,0,0,-1,0,726)" stroke-width=".25" stroke-linecap="round" stroke-miterlimit="10" stroke-linejoin="miter" fill="none" stroke="#ffffff" d="M 495 715 L 715 231 "/>
<path transform="matrix(1,0,0,-1,0,726)" stroke-width=".25" stroke-linecap="round" stroke-miterlimit="10" stroke-linejoin="miter" fill="none" stroke="#ffffff" d="M 506 715 L 715 220 "/>
<path transform="matrix(1,0,0,-1,0,726)" stroke-width=".25" stroke-linecap="round" stroke-miterlimit="10" stroke-linejoin="miter" fill="none" stroke="#ffffff" d="M 517 715 L 715 209 "/>
<path transform="matrix(1,0,0,-1,0,726)" stroke-width=".25" stroke-linecap="round" stroke-miterlimit="10" stroke-linejoin="miter" fill="none" stroke="#ffffff" d="M 528 715 L 715 198 "/>
<path transform="matrix(1,0,0,-1,0,726)" stroke-width=".25" stroke-linecap="round" stroke-miterlimit="10" stroke-linejoin="miter" fill="none" stroke="#ffffff" d="M 539 715 L 715 187 "/>
<path transform="matrix(1,0,0,-1,0,726)" stroke-width=".25" stroke-linecap="round" stroke-miterlimit="10" stroke-linejoin="miter" fill="none" stroke="#ffffff" d="M 550 715 L 715 176 "/>
<path transform="matrix(1,0,0,-1,0,726)" stroke-width=".25" stroke-linecap="round" stroke-miterlimit="10" stroke-linejoin="miter" fill="none" stroke="#ffffff" d="M 561 715 L 715 165 "/>
<path transform="matrix(1,0,0,-1,0,726)" stroke-width=".25" stroke-linecap="round" stroke-miterlimit="10" stroke-linejoin="miter" fill="none" stroke="#ffffff" d="M 572 715 L 715 154 "/>
<path transform="matrix(1,0,0,-1,0,726)" stroke-width=".25" stroke-linecap="round" stroke-miterlimit="10" stroke-linejoin="miter" fill="none" stroke="#ffffff" d="M 583 715 L 715 143 "/>
<path transform="matrix(1,0,0,-1,0,726)" stroke-width=".25" stroke-linecap="round" stroke-miterlimit="10" stroke-linejoin="miter" fill="none" stroke="#ffffff" d="M 594 715 L 715 132 "/>
<path transform="matrix(1,0,0,-1,0,726)" stroke-width=".25" stroke-linecap="round" stroke-miterlimit="10" stroke-linejoin="miter" fill="none" stroke="#ffffff" d="M 605 715 L 715 121 "/>
<path transform="matrix(1,0,0,-1,0,726)" stroke-width=".25" stroke-linecap="round" stroke-miterlimit="10" stroke-linejoin="miter" fill="none" stroke="#ffffff" d="M 616 715 L 715 110 "/>
<path transform="matrix(1,0,0,-1,0,726)" stroke-width=".25" stroke-linecap="round" stroke-miterlimit="10" stroke-linejoin="miter" fill="none" stroke="#ffffff" d="M 627 715 L 715 99 "/>
<path transform="matrix(1,0,0,-1,0,726)" stroke-width=".25" stroke-linecap="round" stroke-miterlimit="10" stroke-linejoin="miter" fill="none" stroke="#ffffff" d="M 638 715 L 715 88 "/>
<path transform="matrix(1,0,0,-1,0,726)" stroke-width=".25" stroke-linecap="round" stroke-miterlimit="10" stroke-linejoin="miter" fill="none" stroke="#ffffff" d="M 649 715 L 715 77 "/>
<path transform="matrix(1,0,0,-1,0,726)" stroke-width=".25" stroke-linecap="round" stroke-miterlimit="10" stroke-linejoin="miter" fill="none" stroke="#ffffff" d="M 660 715 L 715 66 "/>
<path transform="matrix(1,0,0,-1,0,726)" stroke-width=".25" stroke-linecap="round" stroke-miterlimit="10" stroke-linejoin="miter" fill="none" stroke="#ffffff" d="M 671 715 L 715 55 "/>
<path transform="matrix(1,0,0,-1,0,726)" stroke-width=".25" stroke-linecap="round" stroke-miterlimit="10" stroke-linejoin="miter" fill="none" stroke="#ffffff" d="M 682 715 L 715 44 "/>
<path transform="matrix(1,0,0,-1,0,726)" stroke-width=".25" stroke-linecap="round" stroke-miterlimit="10" stroke-linejoin="miter" fill="none" stroke="#ffffff" d="M 693 715 L 715 33 "/>
<path transform="matrix(1,0,0,-1,0,726)" stroke-width=".25" stroke-linecap="round" stroke-miterlimit="10" stroke-linejoin="miter" fill="none" stroke="#ffffff" d="M 704 715 L 715 22 "/>
<path transform="matrix(1,0,0,-1,0,726)" stroke-width=".25" stroke-linecap="round" stroke-miterlimit="10" stroke-linejoin="miter" fill="none" stroke="#ffffff" d="M 715 715 L 715 11 "/>
<path transform="matrix(1,0,0,-1,0,726)" stroke-width=".25" stroke-linecap="round" stroke-miterlimit="10" stroke-linejoin="miter" fill="none" stroke="#ffffff" d="M 715 704 L 704 11 "/>
<path transform="matrix(1,0,0,-1,0,726)" stroke-width=".25" stroke-linecap="round" stroke-miterlimit="10" stroke-linejoin="miter" fill="none" stroke="#ffffff" d="M 715 693 L 682 11 "/>
<path transform="matrix(1,0,0,-1,0,726)" stroke-width=".25" stroke-linecap="round" stroke-miterlimit="10" stroke-linejoin="miter" fill="none" stroke="#ffffff" d="M 715 682 L 660 11 "/>
<path transform="matrix(1,0,0,-1,0,726)" stroke-width=".25" stroke-linecap="round" stroke-miterlimit="10" stroke-linejoin="miter" fill="none" stroke="#ffffff" d="M 715 671 L 638 11 "/>
<path transform="matrix(1,0,0,-1,0,726)" stroke-width=".25" stroke-linecap="round" stroke-miterlimit="10" stroke-linejoin="miter" fill="none" stroke="#ffffff" d="M 715 660 L 616 11 "/>
<path transform="matrix(1,0,0,-1,0,726)" stroke-width=".25" stroke-linecap="round" stroke-miterlimit="10" stroke-linejoin="miter" fill="none" stroke="#ffffff" d="M 715 649 L 594 11 "/>
<path transform="matrix(1,0,0,-1,0,726)" stroke-width=".25" stroke-linecap="round" stroke-miterlimit="10" stroke-linejoin="miter" fill="none" stroke="#ffffff" d="M 715 638 L 572 11 "/>
<path transform="matrix(1,0,0,-1,0,726)" stroke-width=".25" stroke-linecap="round" stroke-miterlimit="10" stroke-linejoin="miter" fill="none" stroke="#ffffff" d="M 715 627 L 550 11 "/>
<path transform="matrix(1,0,0,-1,0,726)" stroke-width=".25" stroke-linecap="round" stroke-miterlimit="10" stroke-linejoin="miter" fill="none" stroke="#ffffff" d="M 715 616 L 528 11 "/>
<path transform="matrix(1,0,0,-1,0,726)" stroke-width=".25" stroke-linecap="round" stroke-miterlimit="10" stroke-linejoin="miter" fill="none" stroke="#ffffff" d="M 715 605 L 506 11 "/>
<path transform="matrix(1,0,0,-1,0,726)" stroke-width=".25" stroke-linecap="round" stroke-miterlimit="10" stroke-linejoin="miter" fill="none" stroke="#ffffff" d="M 715 594 L 484 11 "/>
<path transform="matrix(1,0,0,-1,0,726)" stroke-width=".25" stroke-linecap="round" stroke-miterlimit="10" stroke-linejoin="miter" fill="none" stroke="#ffffff" d="M 715 583 L 462 11 "/>
<path transform="matrix(1,0,0,-1,0,726)" stroke-width=".25" stroke-linecap="round" stroke-miterlimit="10" stroke-linejoin="miter" fill="none" stroke="#ffffff" d="M 715 572 L 440 11 "/>
<path transform="matrix(1,0,0,-1,0,726)" stroke-width=".25" stroke-linecap="round" stroke-miterlimit="10" stroke-linejoin="miter" fill="none" stroke="#ffffff" d="M 715 561 L 418 11 "/>
<path transform="matrix(1,0,0,-1,0,726)" stroke-width=".25" stroke-linecap="round" stroke-miterlimit="10" stroke-linejoin="miter" fill="none" stroke="#ffffff" d="M 715 550 L 396 11 "/>
<path transform="matrix(1,0,0,-1,0,726)" stroke-width=".25" stroke-linecap="round" stroke-miterlimit="10" stroke-linejoin="miter" fill="none" stroke="#ffffff" d="M 715 539 L 374 11 "/>
<path transform="matrix(1,0,0,-1,0,726)" stroke-width=".25" stroke-linecap="round" stroke-miterlimit="10" stroke-linejoin="miter" fill="none" stroke="#ffffff" d="M 715 528 L 352 11 "/>
<path transform="matrix(1,0,0,-1,0,726)" stroke-width=".25" stroke-linecap="round" stroke-miterlimit="10" stroke-linejoin="miter" fill="none" stroke="#ffffff" d="M 715 517 L 330 11 "/>
<path transform="matrix(1,0,0,-1,0,726)" stroke-width=".25" stroke-linecap="round" stroke-miterlimit="10" stroke-linejoin="miter" fill="none" stroke="#ffffff" d="M 715 506 L 308 11 "/>
<path transform="matrix(1,0,0,-1,0,726)" stroke-width=".25" stroke-linecap="round" stroke-miterlimit="10" stroke-linejoin="miter" fill="none" stroke="#ffffff" d="M 715 495 L 286 11 "/>
<path transform="matrix(1,0,0,-1,0,726)" stroke-width=".25" stroke-linecap="round" stroke-miterlimit="10" stroke-linejoin="miter" fill="none" stroke="#ffffff" d="M 715 484 L 264 11 "/>
<path transform="matrix(1,0,0,-1,0,726)" stroke-width=".25" stroke-linecap="round" stroke-miterlimit="10" stroke-linejoin="miter" fill="none" stroke="#ffffff" d="M 715 473 L 242 11 "/>
<path transform="matrix(1,0,0,-1,0,726)" stroke-width=".25" stroke-linecap="round" stroke-miterlimit="10" stroke-linejoin="miter" fill="none" stroke="#ffffff" d="M 715 462 L 220 11 "/>
<path transform="matrix(1,0,0,-1,0,726)" stroke-width=".25" stroke-linecap="round" stroke-miterlimit="10" stroke-linejoin="miter" fill="none" stroke="#ffffff" d="M 715 451 L 198 11 "/>
<path transform="matrix(1,0,0,-1,0,726)" stroke-width=".25" stroke-linecap="round" stroke-miterlimit="10" stroke-linejoin="miter" fill="none" stroke="#ffffff" d="M 715 440 L 176 11 "/>
<path transform="matrix(1,0,0,-1,0,726)" stroke-width=".25" stroke-linecap="round" stroke-miterlimit="10" stroke-linejoin="miter" fill="none" stroke="#ffffff" d="M 715 429 L 154 11 "/>
<path transform="matrix(1,0,0,-1,0,726)" stroke-width=".25" stroke-linecap="round" stroke-miterlimit="10" stroke-linejoin="miter" fill="none" stroke="#ffffff" d="M 715 418 L 132 11 "/>
<path transform="matrix(1,0,0,-1,0,726)" stroke-width=".25" stroke-linecap="round" stroke-miterlimit="10" stroke-linejoin="miter" fill="none" stroke="#ffffff" d="M 715 407 L 110 11 "/>
<path transform="matrix(1,0,0,-1,0,726)" stroke-width=".25" stroke-linecap="round" stroke-miterlimit="10" stroke-linejoin="miter" fill="none" stroke="#ffffff" d="M 715 396 L 88 11 "/>
<path transform="matrix(1,0,0,-1,0,726)" stroke-width=".25" stroke-linecap="round" stroke-miterlimit="10" stroke-linejoin="miter" fill="none" stroke="#ffffff" d="M 715 385 L 66 11 "/>
<path transform="matrix(1,0,0,-1,0,726)" stroke-width=".25" stroke-linecap="round" stroke-miterlimit="10" stroke-linejoin="miter" fill="none" stroke="#ffffff" d="M 715 374 L 44 11 "/>
<path transform="matrix(1,0,0,-1,0,726)" stroke-width=".25" stroke-linecap="round" stroke-miterlimit="10" stroke-linejoin="miter" fill="none" stroke="#ffffff" d="M 715 363 L 22 11 "/>
<path transform="matrix(1,0,0,-1,0,726)" stroke-width=".25" stroke-linecap="round" stroke-miterlimit="10" stroke-linejoin="miter" fill="none" stroke="#ffffff" d="M 715 352 L 11 11 "/>
<path transform="matrix(1,0,0,-1,0,726)" stroke-width=".25" stroke-linecap="round" stroke-miterlimit="10" stroke-linejoin="miter" fill="none" stroke="#ffffff" d="M 715 341 L 11 11 "/>
<path transform="matrix(1,0,0,-1,0,726)" stroke-width=".25" stroke-linecap="round" stroke-miterlimit="10" stroke-linejoin="miter" fill="none" stroke="#ffffff" d="M 715 330 L 11 11 "/>
<path transform="matrix(1,0,0,-1,0,726)" stroke-width=".25" stroke-linecap="round" stroke-miterlimit="10" stroke-linejoin="miter" fill="none" stroke="#ffffff" d="M 715 319 L 11 11 "/>
<path transform="matrix(1,0,0,-1,0,726)" stroke-width=".25" stroke-linecap="round" stroke-miterlimit="10" stroke-linejoin="miter" fill="none" stroke="#ffffff" d="M 715 308 L 11 11 "/>
<path transform="matrix(1,0,0,-1,0,726)" stroke-width=".25" stroke-linecap="round" stroke-miterlimit="10" stroke-linejoin="miter" fill="none" stroke="#ffffff" d="M 715 297 L 11 11 "/>
<path transform="matrix(1,0,0,-1,0,726)" stroke-width=".25" stroke-linecap="round" stroke-miterlimit="10" stroke-linejoin="miter" fill="none" stroke="#ffffff" d="M 715 286 L 11 11 "/>
<path transform="matrix(1,0,0,-1,0,726)" stroke-width=".25" stroke-linecap="round" stroke-miterlimit="10" stroke-linejoin="miter" fill="none" stroke="#ffffff" d="M 715 275 L 11 11 "/>
<path transform="matrix(1,0,0,-1,0,726)" stroke-width=".25" stroke-linecap="round" stroke-miterlimit="10" stroke-linejoin="miter" fill="none" stroke="#ffffff" d="M 715 264 L 11 11 "/>
<path transform="matrix(1,0,0,-1,0,726)" stroke-width=".25" stroke-linecap="round" stroke-miterlimit="10" stroke-linejoin="miter" fill="none" stroke="#ffffff" d="M 715 253 L 11 11 "/>
<path transform="matrix(1,0,0,-1,0,726)" stroke-width=".25" stroke-linecap="round" stroke-miterlimit="10" stroke-linejoin="miter" fill="none" stroke="#ffffff" d="M 715 242 L 11 11 "/>
<path transform="matrix(1,0,0,-1,0,726)" stroke-width=".25" stroke-linecap="round" stroke-miterlimit="10" stroke-linejoin="miter" fill="none" stroke="#ffffff" d="M 715 231 L 11 11 "/>
<path transform="matrix(1,0,0,-1,0,726)" stroke-width=".25" stroke-linecap="round" stroke-miterlimit="10" stroke-linejoin="miter" fill="none" stroke="#ffffff" d="M 715 220 L 11 11 "/>
<path transform="matrix(1,0,0,-1,0,726)" stroke-width=".25" stroke-linecap="round" stroke-miterlimit="10" stroke-linejoin="miter" fill="none" stroke="#ffffff" d="M 715 209 L 11 11 "/>
<path transform="matrix(1,0,0,-1,0,726)" stroke-width=".25" stroke-linecap="round" stroke-miterlimit="10" stroke-linejoin="miter" fill="none" stroke="#ffffff" d="M 715 198 L 11 11 "/>
<path transform="matrix(1,0,0,-1,0,726)" stroke-width=".25" stroke-linecap="round" stroke-miterlimit="10" stroke-linejoin="miter" fill="none" stroke="#ffffff" d="M 715 187 L 11 11 "/>
<path transform="matrix(1,0,0,-1,0,726)" stroke-width=".25" stroke-linecap="round" stroke-miterlimit="10" stroke-linejoin="miter" fill="none" stroke="#ffffff" d="M 715 176 L 11 11 "/>
<path transform="matrix(1,0,0,-1,0,726)" stroke-width=".25" stroke-linecap="round" stroke-miterlimit="10" stroke-linejoin="miter" fill="none" stroke="#ffffff" d="M 715 165 L 11 11 "/>
<path transform="matrix(1,0,0,-1,0,726)" stroke-width=".25" stroke-linecap="round" stroke-miterlimit="10" stroke-linejoin="miter" fill="none" stroke="#ffffff" d="M 715 154 L 11 11 "/>
<path transform="matrix(1,0,0,-1,0,726)" stroke-width=".25" stroke-linecap="round" stroke-miterlimit="10" stroke-linejoin="miter" fill="none" stroke="#ffffff" d="M 715 143 L 11 11 "/>
<path transform="matrix(1,0,0,-1,0,726)" stroke-width=".25" stroke-linecap="round" stroke-miterlimit="10" stroke-linejoin="miter" fill="none" stroke="#ffffff" d="M 715 132 L 11 11 "/>
<path transform="matrix(1,0,0,-1,0,726)" stroke-width=".25" stroke-linecap="round" stroke-miterlimit="10" stroke-linejoin="miter" fill="none" stroke="#ffffff" d="M 715 121 L 11 11 "/>
<path transform="matrix(1,0,0,-1,0,726)" stroke-width=".25" stroke-linecap="round" stroke-miterlimit="10" stroke-linejoin="miter" fill="none" stroke="#ffffff" d="M 715 110 L 11 11 "/>
<path transform="matrix(1,0,0,-1,0,726)" stroke-width=".25" stroke-linecap="round" stroke-miterlimit="10" stroke-linejoin="miter" fill="none" stroke="#ffffff" d="M 715 99 L 11 11 "/>
<path transform="matrix(1,0,0,-1,0,726)" stroke-width=".25" stroke-linecap="round" stroke-miterlimit="10" stroke-linejoin="miter" fill="none" stroke="#ffffff" d="M 715 88 L 11 11 "/>
<path transform="matrix(1,0,0,-1,0,726)" stroke-width=".25" stroke-linecap="round" stroke-miterlimit="10" stroke-linejoin="miter" fill="none" stroke="#ffffff" d="M 715 77 L 11 11 "/>
<path transform="matrix(1,0,0,-1,0,726)" stroke-width=".25" stroke-linecap="round" stroke-miterlimit="10" stroke-linejoin="miter" fill="none" stroke="#ffffff" d="M 715 66 L 11 11 "/>
<path transform="matrix(1,0,0,-1,0,726)" stroke-width=".25" stroke-linecap="round" stroke-miterlimit="10" stroke-linejoin="miter" fill="none" stroke="#ffffff" d="M 715 55 L 11 11 "/>
<path transform="matrix(1,0,0,-1,0,726)" stroke-width=".25" stroke-linecap="round" stroke-miterlimit="10" stroke-linejoin="miter" fill="none" stroke="#ffffff" d="M 715 44 L 11 11 "/>
<path transform="matrix(1,0,0,-1,0,726)" stroke-width=".25" stroke-linecap="round" stroke-miterlimit="10" stroke-linejoin="miter" fill="none" stroke="#ffffff" d="M 715 33 L 11 11 "/>
<path transform="matrix(1,0,0,-1,0,726)" stroke-width=".25" stroke-linecap="round" stroke-miterlimit="10" stroke-linejoin="miter" fill="none" stroke="#ffffff" d="M 715 22 L 11 11 "/>
<path transform="matrix(1,0,0,-1,0,726)" stroke-width=".25" stroke-linecap="round" stroke-miterlimit="10" stroke-linejoin="miter" fill="none" stroke="#ffffff" d="M 715 11 L 11 11 "/>
<path transform="matrix(1,0,0,-1,0,726)" stroke-width=".25" stroke-linecap="round" stroke-miterlimit="10" stroke-linejoin="miter" fill="none" stroke="#ffffff" d="M 704 11 L 22 22 "/>
<path transform="matrix(1,0,0,-1,0,726)" stroke-width=".25" stroke-linecap="round" stroke-miterlimit="10" stroke-linejoin="miter" fill="none" stroke="#ffffff" d="M 693 11 L 44 33 "/>
<path transform="matrix(1,0,0,-1,0,726)" stroke-width=".25" stroke-linecap="round" stroke-miterlimit="10" stroke-linejoin="miter" fill="none" stroke="#ffffff" d="M 682 11 L 66 44 "/>
<path transform="matrix(1,0,0,-1,0,726)" stroke-width=".25" stroke-linecap="round" stroke-miterlimit="10" stroke-linejoin="miter" fill="none" stroke="#ffffff" d="M 671 11 L 88 55 "/>
<path transform="matrix(1,0,0,-1,0,726)" stroke-width=".25" stroke-linecap="round" stroke-miterlimit="10" stroke-linejoin="miter" fill="none" stroke="#ffffff" d="M 660 11 L 110 66 "/>
<path transform="matrix(1,0,0,-1,0,726)" stroke-width=".25" stroke-linecap="round" stroke-miterlimit="10" stroke-linejoin="miter" fill="none" stroke="#ffffff" d="M 649 11 L 132 77 "/>
<path transform="matrix(1,0,0,-1,0,726)" stroke-width=".25" stroke-linecap="round" stroke-miterlimit="10" stroke-linejoin="miter" fill="none" stroke="#ffffff" d="M 638 11 L 154 88 "/>
<path transform="matrix(1,0,0,-1,0,726)" stroke-width=".25" stroke-linecap="round" stroke-miterlimit="10" stroke-linejoin="miter" fill="none" stroke="#ffffff" d="M 627 11 L 176 99 "/>
<path transform="matrix(1,0,0,-1,0,726)" stroke-width=".25" stroke-linecap="round" stroke-miterlimit="10" stroke-linejoin="miter" fill="none" stroke="#ffffff" d="M 616 11 L 198 110 "/>
<path transform="matrix(1,0,0,-1,0,726)" stroke-width=".25" stroke-linecap="round" stroke-miterlimit="10" stroke-linejoin="miter" fill="none" stroke="#ffffff" d="M 605 11 L 220 121 "/>
<path transform="matrix(1,0,0,-1,0,726)" stroke-width=".25" stroke-linecap="round" stroke-miterlimit="10" stroke-linejoin="miter" fill="none" stroke="#ffffff" d="M 594 11 L 242 132 "/>
<path transform="matrix(1,0,0,-1,0,726)" stroke-width=".25" stroke-linecap="round" stroke-miterlimit="10" stroke-linejoin="miter" fill="none" stroke="#ffffff" d="M 583 11 L 264 143 "/>
<path transform="matrix(1,0,0,-1,0,726)" stroke-width=".25" stroke-linecap="round" stroke-miterlimit="10" stroke-linejoin="miter" fill="none" stroke="#ffffff" d="M 572 11 L 286 154 "/>
<path transform="matrix(1,0,0,-1,0,726)" stroke-width=".25" stroke-linecap="round" stroke-miterlimit="10" stroke-linejoin="miter" fill="none" stroke="#ffffff" d="M 561 11 L 308 165 "/>
<path transform="matrix(1,0,0,-1,0,726)" stroke-width=".25" stroke-linecap="round" stroke-miterlimit="10" stroke-linejoin="miter" fill="none" stroke="#ffffff" d="M 550 11 L 330 176 "/>
<path transform="matrix(1,0,0,-1,0,726)" stroke-width=".25" stroke-linecap="round" stroke-miterlimit="10" stroke-linejoin="miter" fill="none" stroke="#ffffff" d="M 539 11 L 352 187 "/>
<path transform="matrix(1,0,0,-1,0,726)" stroke-width=".25" stroke-linecap="round" stroke-miterlimit="10" stroke-linejoin="miter" fill="none" stroke="#ffffff" d="M 528 11 L 374 198 "/>
<path transform="matrix(1,0,0,-1,0,726)" stroke-width=".25" stroke-linecap="round" stroke-miterlimit="10" stroke-linejoin="miter" fill="none" stroke="#ffffff" d="M 517 11 L 396 209 "/>
<path transform="matrix(1,0,0,-1,0,726)" stroke-width=".25" stroke-linecap="round" stroke-miterlimit="10" stroke-linejoin="miter" fill="none" stroke="#ffffff" d="M 506 11 L 418 220 "/>
<path transform="matrix(1,0,0,-1,0,726)" stroke-width=".25" stroke-linecap="round" stroke-miterlimit="10" stroke-linejoin="miter" fill="none" stroke="#ffffff" d="M 495 11 L 440 231 "/>
<path transform="matrix(1,0,0,-1,0,726)" stroke-width=".25" stroke-linecap="round" stroke-miterlimit="10" stroke-linejoin="miter" fill="none" stroke="#ffffff" d="M 484 11 L 462 242 "/>
<path transform="matrix(1,0,0,-1,0,726)" stroke-width=".25" stroke-linecap="round" stroke-miterlimit="10" stroke-linejoin="miter" fill="none" stroke="#ffffff" d="M 473 11 L 484 253 "/>
<path transform="matrix(1,0,0,-1,0,726)" stroke-width=".25" stroke-linecap="round" stroke-miterlimit="10" stroke-linejoin="miter" fill="none" stroke="#ffffff" d="M 462 11 L 506 264 "/>
<path transform="matrix(1,0,0,-1,0,726)" stroke-width=".25" stroke-linecap="round" stroke-miterlimit="10" stroke-linejoin="miter" fill="none" stroke="#ffffff" d="M 451 11 L 528 275 "/>
<path transform="matrix(1,0,0,-1,0,726)" stroke-width=".25" stroke-linecap="round" stroke-miterlimit="10" stroke-linejoin="miter" fill="none" stroke="#ffffff" d="M 440 11 L 550 286 "/>
<path transform="matrix(1,0,0,-1,0,726)" stroke-width=".25" stroke-linecap="round" stroke-miterlimit="10" stroke-linejoin="miter" fill="none" stroke="#ffffff" d="M 429 11 L 572 297 "/>
<path transform="matrix(1,0,0,-1,0,726)" stroke-width=".25" stroke-linecap="round" stroke-miterlimit="10" stroke-linejoin="miter" fill="none" stroke="#ffffff" d="M 418 11 L 594 308 "/>
<path transform="matrix(1,0,0,-1,0,726)" stroke-width=".25" stroke-linecap="round" stroke-miterlimit="10" stroke-linejoin="miter" fill="none" stroke="#ffffff" d="M 407 11 L 616 319 "/>
<path transform="matrix(1,0,0,-1,0,726)" stroke-width=".25" stroke-linecap="round" stroke-miterlimit="10" stroke-linejoin="miter" fill="none" stroke="#ffffff" d="M 396 11 L 638 330 "/>
<path transform="matrix(1,0,0,-1,0,726)" stroke-width=".25" stroke-linecap="round" stroke-miterlimit="10" stroke-linejoin="miter" fill="none" stroke="#ffffff" d="M 385 11 L 660 341 "/>
<path transform="matrix(1,0,0,-1,0,726)" stroke-width=".25" stroke-linecap="round" stroke-miterlimit="10" stroke-linejoin="miter" fill="none" stroke="#ffffff" d="M 374 11 L 682 352 "/>
<path transform="matrix(1,0,0,-1,0,726)" stroke-width=".25" stroke-linecap="round" stroke-miterlimit="10" stroke-linejoin="miter" fill="none" stroke="#ffffff" d="M 363 11 L 704 363 "/>
<path transform="matrix(1,0,0,-1,0,726)" stroke-width=".25" stroke-linecap="round" stroke-miterlimit="10" stroke-linejoin="miter" fill="none" stroke="#ffffff" d="M 352 11 L 715 374 "/>
<path transform="matrix(1,0,0,-1,0,726)" stroke-width=".25" stroke-linecap="round" stroke-miterlimit="10" stroke-linejoin="miter" fill="none" stroke="#ffffff" d="M 341 11 L 715 385 "/>
<path transform="matrix(1,0,0,-1,0,726)" stroke-width=".25" stroke-linecap="round" stroke-miterlimit="10" stroke-linejoin="miter" fill="none" stroke="#ffffff" d="M 330 11 L 715 396 "/>
<path transform="matrix(1,0,0,-1,0,726)" stroke-width=".25" stroke-linecap="round" stroke-miterlimit="10" stroke-linejoin="miter" fill="none" stroke="#ffffff" d="M 319 11 L 715 407 "/>
<path transform="matrix(1,0,0,-1,0,726)" stroke-width=".25" stroke-linecap="round" stroke-miterlimit="10" stroke-linejoin="miter" fill="none" stroke="#ffffff" d="M 308 11 L 715 418 "/>
<path transform="matrix(1,0,0,-1,0,726)" stroke-width=".25" stroke-linecap="round" stroke-miterlimit="10" stroke-linejoin="miter" fill="none" stroke="#ffffff" d="M 297 11 L 715 429 "/>
<path transform="matrix(1,0,0,-1,0,726)" stroke-width=".25" stroke-linecap="round" stroke-miterlimit="10" stroke-linejoin="miter" fill="none" stroke="#ffffff" d="M 286 11 L 715 440 "/>
<path transform="matrix(1,0,0,-1,0,726)" stroke-width=".25" stroke-linecap="round" stroke-miterlimit="10" stroke-linejoin="miter" fill="none" stroke="#ffffff" d="M 275 11 L 715 451 "/>
<path transform="matrix(1,0,0,-1,0,726)" stroke-width=".25" stroke-linecap="round" stroke-miterlimit="10" stroke-linejoin="miter" fill="none" stroke="#ffffff" d="M 264 11 L 715 462 "/>
<path transform="matrix(1,0,0,-1,0,726)" stroke-width=".25" stroke-linecap="round" stroke-miterlimit="10" stroke-linejoin="miter" fill="none" stroke="#ffffff" d="M 253 11 L 715 473 "/>
<path transform="matrix(1,0,0,-1,0,726)" stroke-width=".25" stroke-linecap="round" stroke-miterlimit="10" stroke-linejoin="miter" fill="none" stroke="#ffffff" d="M 242 11 L 715 484 "/>
<path transform="matrix(1,0,0,-1,0,726)" stroke-width=".25" stroke-linecap="round" stroke-miterlimit="10" stroke-linejoin="miter" fill="none" stroke="#ffffff" d="M 231 11 L 715 495 "/>
<path transform="matrix(1,0,0,-1,0,726)" stroke-width=".25" stroke-linecap="round" stroke-miterlimit="10" stroke-linejoin="miter" fill="none" stroke="#ffffff" d="M 220 11 L 715 506 "/>
<path transform="matrix(1,0,0,-1,0,726)" stroke-width=".25" stroke-linecap="round" stroke-miterlimit="10" stroke-linejoin="miter" fill="none" stroke="#ffffff" d="M 209 11 L 715 517 "/>
<path transform="matrix(1,0,0,-1,0,726)" stroke-width=".25" stroke-linecap="round" stroke-miterlimit="10" stroke-linejoin="miter" fill="none" stroke="#ffffff" d="M 198 11 L 715 528 "/>
<path transform="matrix(1,0,0,-1,0,726)" stroke-width=".25" stroke-linecap="round" stroke-miterlimit="10" stroke-linejoin="miter" fill="none" stroke="#ffffff" d="M 187 11 L 715 539 "/>
<path transform="matrix(1,0,0,-1,0,726)" stroke-width=".25" stroke-linecap="round" stroke-miterlimit="10" stroke-linejoin="miter" fill="none" stroke="#ffffff" d="M 176 11 L 715 550 "/>
<path transform="matrix(1,0,0,-1,0,726)" stroke-width=".25" stroke-linecap="round" stroke-miterlimit="10" stroke-linejoin="miter" fill="none" stroke="#ffffff" d="M 165 11 L 715 561 "/>
<path transform="matrix(1,0,0,-1,0,726)" stroke-width=".25" stroke-linecap="round" stroke-miterlimit="10" stroke-linejoin="miter" fill="none" stroke="#ffffff" d="M 154 11 L 715 572 "/>
<path transform="matrix(1,0,0,-1,0,726)" stroke-width=".25" stroke-linecap="round" stroke-miterlimit="10" stroke-linejoin="miter" fill="none" stroke="#ffffff" d="M 143 11 L 715 583 "/>
<path transform="matrix(1,0,0,-1,0,726)" stroke-width=".25" stroke-linecap="round" stroke-miterlimit="10" stroke-linejoin="miter" fill="none" stroke="#ffffff" d="M 132 11 L 715 594 "/>
<path transform="matrix(1,0,0,-1,0,726)" stroke-width=".25" stroke-linecap="round" stroke-miterlimit="10" stroke-linejoin="miter" fill="none" stroke="#ffffff" d="M 121 11 L 715 605 "/>
<path transform="matrix(1,0,0,-1,0,726)" stroke-width=".25" stroke-linecap="round" stroke-miterlimit="10" stroke-linejoin="miter" fill="none" stroke="#ffffff" d="M 110 11 L 715 616 "/>
<path transform="matrix(1,0,0,-1,0,726)" stroke-width=".25" stroke-linecap="round" stroke-miterlimit="10" stroke-linejoin="miter" fill="none" stroke="#ffffff" d="M 99 11 L 715 627 "/>
<path transform="matrix(1,0,0,-1,0,726)" stroke-width=".25" stroke-linecap="round" stroke-miterlimit="10" stroke-linejoin="miter" fill="none" stroke="#ffffff" d="M 88 11 L 715 638 "/>
<path transform="matrix(1,0,0,-1,0,726)" stroke-width=".25" stroke-linecap="round" stroke-miterlimit="10" stroke-linejoin="miter" fill="none" stroke="#ffffff" d="M 77 11 L 715 649 "/>
<path transform="matrix(1,0,0,-1,0,726)" stroke-width=".25" stroke-linecap="round" stroke-miterlimit="10" stroke-linejoin="miter" fill="none" stroke="#ffffff" d="M 66 11 L 715 660 "/>
<path transform="matrix(1,0,0,-1,0,726)" stroke-width=".25" stroke-linecap="round" stroke-miterlimit="10" stroke-linejoin="miter" fill="none" stroke="#ffffff" d="M 55 11 L 715 671 "/>
<path transform="matrix(1,0,0,-1,0,726)" stroke-width=".25" stroke-linecap="round" stroke-miterlimit="10" stroke-linejoin="miter" fill="none" stroke="#ffffff" d="M 44 11 L 715 682 "/>
<path transform="matrix(1,0,0,-1,0,726)" stroke-width=".25" stroke-linecap="round" stroke-miterlimit="10" stroke-linejoin="miter" fill="none" stroke="#ffffff" d="M 33 11 L 715 693 "/>
<path transform="matrix(1,0,0,-1,0,726)" stroke-width=".25" stroke-linecap="round" stroke-miterlimit="10" stroke-linejoin="miter" fill="none" stroke="#ffffff" d="M 22 11 L 715 704 "/>
<path transform="matrix(1,0,0,-1,0,726)" stroke-width=".25" stroke-linecap="round" stroke-miterlimit="10" stroke-linejoin="miter" fill="none" stroke="#ffffff" d="M 11 11 L 715 715 "/>
<path transform="matrix(1,0,0,-1,0,726)" stroke-width=".25" stroke-linecap="round" stroke-miterlimit="10" stroke-linejoin="miter" fill="none" stroke="#ffffff" d="M 11 22 L 704 715 "/>
<path transform="matrix(1,0,0,-1,0,726)" stroke-width=".25" stroke-linecap="round" stroke-miterlimit="10" stroke-linejoin="miter" fill="none" stroke="#ffffff" d="M 11 33 L 682 715 "/>
<path transform="matrix(1,0,0,-1,0,726)" stroke-width=".25" stroke-linecap="round" stroke-miterlimit="10" stroke-linejoin="miter" fill="none" stroke="#ffffff" d="M 11 44 L 660 715 "/>
<path transform="matrix(1,0,0,-1,0,726)" stroke-width=".25" stroke-linecap="round" stroke-miterlimit="10" stroke-linejoin="miter" fill="none" stroke="#ffffff" d="M 11 55 L 638 715 "/>
<path transform="matrix(1,0,0,-1,0,726)" stroke-width=".25" stroke-linecap="round" stroke-miterlimit="10" stroke-linejoin="miter" fill="none" stroke="#ffffff" d="M 11 66 L 616 715 "/>
<path transform="matrix(1,0,0,-1,0,726)" stroke-width=".25" stroke-linecap="round" stroke-miterlimit="10" stroke-linejoin="miter" fill="none" stroke="#ffffff" d="M 11 77 L 594 715 "/>
<path transform="matrix(1,0,0,-1,0,726)" stroke-width=".25" stroke-linecap="round" stroke-miterlimit="10" stroke-linejoin="miter" fill="none" stroke="#ffffff" d="M 11 88 L 572 715 "/>
<path transform="matrix(1,0,0,-1,0,726)" stroke-width=".25" stroke-linecap="round" stroke-miterlimit="10" stroke-linejoin="miter" fill="none" stroke="#ffffff" d="M 11 99 L 550 715 "/>
<path transform="matrix(1,0,0,-1,0,726)" stroke-width=".25" stroke-linecap="round" stroke-miterlimit="10" stroke-linejoin="miter" fill="none" stroke="#ffffff" d="M 11 110 L 528 715 "/>
<path transform="matrix(1,0,0,-1,0,726)" stroke-width=".25" stroke-linecap="round" stroke-miterlimit="10" stroke-linejoin="miter" fill="none" stroke="#ffffff" d="M 11 121 L 506 715 "/>
<path transform="matrix(1,0,0,-1,0,726)" stroke-width=".25" stroke-linecap="round" stroke-miterlimit="10" stroke-linejoin="miter" fill="none" stroke="#ffffff" d="M 11 132 L 484 715 "/>
<path transform="matrix(1,0,0,-1,0,726)" stroke-width=".25" stroke-linecap="round" stroke-miterlimit="10" stroke-linejoin="miter" fill="none" stroke="#ffffff" d="M 11 143 L 462 715 "/>
<path transform="matrix(1,0,0,-1,0,726)" stroke-width=".25" stroke-linecap="round" stroke-miterlimit="10" stroke-linejoin="miter" fill="none" stroke="#ffffff" d="M 11 154 L 440 715 "/>
<path transform="matrix(1,0,0,-1,0,726)" stroke-width=".25" stroke-linecap="round" stroke-miterlimit="10" stroke-linejoin="miter" fill="none" stroke="#ffffff" d="M 11 165 L 418 715 "/>
<path transform="matrix(1,0,0,-1,0,726)" stroke-width=".25" stroke-linecap="round" stroke-miterlimit="10" stroke-linejoin="miter" fill="none" stroke="#ffffff" d="M 11 176 L 396 715 "/>
<path transform="matrix(1,0,0,-1,0,726)" stroke-width=".25" stroke-linecap="round" stroke-miterlimit="10" stroke-linejoin="miter" fill="none" stroke="#ffffff" d="M 11 187 L 374 715 "/>
<path transform="matrix(1,0,0,-1,0,726)" stroke-width=".25" stroke-linecap="round" stroke-miterlimit="10" stroke-linejoin="miter" fill="none" stroke="#ffffff" d="M 11 198 L 352 715 "/>
<path transform="matrix(1,0,0,-1,0,726)" stroke-width=".25" stroke-linecap="round" stroke-miterlimit="10" stroke-linejoin="miter" fill="none" stroke="#ffffff" d="M 11 209 L 330 715 "/>
<path transform="matrix(1,0,0,-1,0,726)" stroke-width=".25" stroke-linecap="round" stroke-miterlimit="10" stroke-linejoin="miter" fill="none" stroke="#ffffff" d="M 11 220 L 308 715 "/>
<path transform="matrix(1,0,0,-1,0,726)" stroke-width=".25" stroke-linecap="round" stroke-miterlimit="10" stroke-linejoin="miter" fill="none" stroke="#ffffff" d="M 11 231 L 286 715 "/>
<path transform="matrix(1,0,0,-1,0,726)" stroke-width=".25" stroke-linecap="round" stroke-miterlimit="10" stroke-linejoin="miter" fill="none" stroke="#ffffff" d="M 11 242 L 264 715 "/>
<path transform="matrix(1,0,0,-1,0,726)" stroke-width=".25" stroke-linecap="round" stroke-miterlimit="10" stroke-linejoin="miter" fill="none" stroke="#ffffff" d="M 11 253 L 242 715 "/>
<path transform="matrix(1,0,0,-1,0,726)" stroke-width=".25" stroke-linecap="round" stroke-miterlimit="10" stroke-linejoin="miter" fill="none" stroke="#ffffff" d="M 11 264 L 220 715 "/>
<path transform="matrix(1,0,0,-1,0,726)" stroke-width=".25" stroke-linecap="round" stroke-miterlimit="10" stroke-linejoin="miter" fill="none" stroke="#ffffff" d="M 11 275 L 198 715 "/>
<path transform="matrix(1,0,0,-1,0,726)" stroke-width=".25" stroke-linecap="round" stroke-miterlimit="10" stroke-linejoin="miter" fill="none" stroke="#ffffff" d="M 11 286 L 176 715 "/>
<path transform="matrix(1,0,0,-1,0,726)" stroke-width=".25" stroke-linecap="round" stroke-miterlimit="10" stroke-linejoin="miter" fill="none" stroke="#ffffff" d="M 11 297 L 154 715 "/>
<path transform="matrix(1,0,0,-1,0,726)" stroke-width=".25" stroke-linecap="round" stroke-miterlimit="10" stroke-linejoin="miter" fill="none" stroke="#ffffff" d="M 11 308 L 132 715 "/>
<path transform="matrix(1,0,0,-1,0,726)" stroke-width=".25" stroke-linecap="round" stroke-miterlimit="10" stroke-linejoin="miter" fill="none" stroke="#ffffff" d="M 11 319 L 110 715 "/>
<path transform="matrix(1,0,0,-1,0,726)" stroke-width=".25" stroke-linecap="round" stroke-miterlimit="10" stroke-linejoin="miter" fill="none" stroke="#ffffff" d="M 11 330 L 88 715 "/>
<path transform="matrix(1,0,0,-1,0,726)" stroke-width=".25" stroke-linecap="round" stroke-miterlimit="10" stroke-linejoin="miter" fill="none" stroke="#ffffff" d="M 11 341 L 66 715 "/>
<path transform="matrix(1,0,0,-1,0,726)" stroke-width=".25" stroke-linecap="round" stroke-miterlimit="10" stroke-linejoin="miter" fill="none" stroke="#ffffff" d="M 11 352 L 44 715 "/>
<path transform="matrix(1,0,0,-1,0,726)" stroke-width=".25" stroke-linecap="round" stroke-miterlimit="10" stroke-linejoin="miter" fill="none" stroke="#ffffff" d="M 11 363 L 22 715 "/>
<path transform="matrix(1,0,0,-1,0,726)" stroke-width=".25" stroke-linecap="round" stroke-miterlimit="10" stroke-linejoin="miter" fill="none" stroke="#ffffff" d="M 11 374 L 11 715 "/>
<path transform="matrix(1,0,0,-1,0,726)" stroke-width=".25" stroke-linecap="round" stroke-miterlimit="10" stroke-linejoin="miter" fill="none" stroke="#ffffff" d="M 11 385 L 11 715 "/>
<path transform="matrix(1,0,0,-1,0,726)" stroke-width=".25" stroke-linecap="round" stroke-miterlimit="10" stroke-linejoin="miter" fill="none" stroke="#ffffff" d="M 11 396 L 11 715 "/>
<path transform="matrix(1,0,0,-1,0,726)" stroke-width=".25" stroke-linecap="round" stroke-miterlimit="10" stroke-linejoin="miter" fill="none" stroke="#ffffff" d="M 11 407 L 11 715 "/>
<path transform="matrix(1,0,0,-1,0,726)" stroke-width=".25" stroke-linecap="round" stroke-miterlimit="10" stroke-linejoin="miter" fill="none" stroke="#ffffff" d="M 11 418 L 11 715 "/>
<path transform="matrix(1,0,0,-1,0,726)" stroke-width=".25" stroke-linecap="round" stroke-miterlimit="10" stroke-linejoin="miter" fill="none" stroke="#ffffff" d="M 11 429 L 11 715 "/>
<path transform="matrix(1,0,0,-1,0,726)" stroke-width=".25" stroke-linecap="round" stroke-miterlimit="10" stroke-linejoin="miter" fill="none" stroke="#ffffff" d="M 11 440 L 11 715 "/>
<path transform="matrix(1,0,0,-1,0,726)" stroke-width=".25" stroke-linecap="round" stroke-miterlimit="10" stroke-linejoin="miter" fill="none" stroke="#ffffff" d="M 11 451 L 11 715 "/>
<path transform="matrix(1,0,0,-1,0,726)" stroke-width=".25" stroke-linecap="round" stroke-miterlimit="10" stroke-linejoin="miter" fill="none" stroke="#ffffff" d="M 11 462 L 11 715 "/>
<path transform="matrix(1,0,0,-1,0,726)" stroke-width=".25" stroke-linecap="round" stroke-miterlimit="10" stroke-linejoin="miter" fill="none" stroke="#ffffff" d="M 11 473 L 11 715 "/>
<path transform="matrix(1,0,0,-1,0,726)" stroke-width=".25" stroke-linecap="round" stroke-miterlimit="10" stroke-linejoin="miter" fill="none" stroke="#ffffff" d="M 11 484 L 11 715 "/>
<path transform="matrix(1,0,0,-1,0,726)" stroke-width=".25" stroke-linecap="round" stroke-miterlimit="10" stroke-linejoin="miter" fill="none" stroke="#ffffff" d="M 11 495 L 11 715 "/>
<path transform="matrix(1,0,0,-1,0,726)" stroke-width=".25" stroke-linecap="round" stroke-miterlimit="10" stroke-linejoin="miter" fill="none" stroke="#ffffff" d="M 11 506 L 11 715 "/>
<path transform="matrix(1,0,0,-1,0,726)" stroke-width=".25" stroke-linecap="round" stroke-miterlimit="10" stroke-linejoin="miter" fill="none" stroke="#ffffff" d="M 11 517 L 11 715 "/>
<path transform="matrix(1,0,0,-1,0,726)" stroke-width=".25" stroke-linecap="round" stroke-miterlimit="10" stroke-linejoin="miter" fill="none" stroke="#ffffff" d="M 11 528 L 11 715 "/>
<path transform="matrix(1,0,0,-1,0,726)" stroke-width=".25" stroke-linecap="round" stroke-miterlimit="10" stroke-linejoin="miter" fill="none" stroke="#ffffff" d="M 11 539 L 11 715 "/>
<path transform="matrix(1,0,0,-1,0,726)" stroke-width=".25" stroke-linecap="round" stroke-miterlimit="10" stroke-linejoin="miter" fill="none" stroke="#ffffff" d="M 11 550 L 11 715 "/>
<path transform="matrix(1,0,0,-1,0,726)" stroke-width=".25" stroke-linecap="round" stroke-miterlimit="10" stroke-linejoin="miter" fill="none" stroke="#ffffff" d="M 11 561 L 11 715 "/>
<path transform="matrix(1,0,0,-1,0,726)" stroke-width=".25" stroke-linecap="round" stroke-miterlimit="10" stroke-linejoin="miter" fill="none" stroke="#ffffff" d="M 11 572 L 11 715 "/>
<path transform="matrix(1,0,0,-1,0,726)" stroke-width=".25" stroke-linecap="round" stroke-miterlimit="10" stroke-linejoin="miter" fill="none" stroke="#ffffff" d="M 11 583 L 11 715 "/>
<path transform="matrix(1,0,0,-1,0,726)" stroke-width=".25" stroke-linecap="round" stroke-miterlimit="10" stroke-linejoin="miter" fill="none" stroke="#ffffff" d="M 11 594 L 11 715 "/>
<path transform="matrix(1,0,0,-1,0,726)" stroke-width=".25" stroke-linecap="round" stroke-miterlimit="10" stroke-linejoin="miter" fill="none" stroke="#ffffff" d="M 11 605 L 11 715 "/>
<path transform="matrix(1,0,0,-1,0,726)" stroke-width=".25" stroke-linecap="round" stroke-miterlimit="10" stroke-linejoin="miter" fill="none" stroke="#ffffff" d="M 11 616 L 11 715 "/>
<path transform="matrix(1,0,0,-1,0,726)" stroke-width=".25" stroke-linecap="round" stroke-miterlimit="10" stroke-linejoin="miter" fill="none" stroke="#ffffff" d="M 11 627 L 11 715 "/>
<path transform="matrix(1,0,0,-1,0,726)" stroke-width=".25" stroke-linecap="round" stroke-miterlimit="10" stroke-linejoin="miter" fill="none" stroke="#ffffff" d="M 11 638 L 11 715 "/>
<path transform="matrix(1,0,0,-1,0,726)" stroke-width=".25" stroke-linecap="round" stroke-miterlimit="10" stroke-linejoin="miter" fill="none" stroke="#ffffff" d="M 11 649 L 11 715 "/>
<path transform="matrix(1,0,0,-1,0,726)" stroke-width=".25" stroke-linecap="round" stroke-miterlimit="10" stroke-linejoin="miter" fill="none" stroke="#ffffff" d="M 11 660 L 11 715 "/>
<path transform="matrix(1,0,0,-1,0,726)" stroke-width=".25" stroke-linecap="round" stroke-miterlimit="10" stroke-linejoin="miter" fill="none" stroke="#ffffff" d="M 11 671 L 11 715 "/>
<path transform="matrix(1,0,0,-1,0,726)" stroke-width=".25" stroke-linecap="round" stroke-miterlimit="10" stroke-linejoin="miter" fill="none" stroke="#ffffff" d="M 11 682 L 11 715 "/>
<path transform="matrix(1,0,0,-1,0,726)" stroke-width=".25" stroke-linecap="round" stroke-miterlimit="10" stroke-linejoin="miter" fill="none" stroke="#ffffff" d="M 11 693 L 11 715 "/>
<path transform="matrix(1,0,0,-1,0,726)" stroke-width=".25" stroke-linecap="round" stroke-miterlimit="10" stroke-linejoin="miter" fill="none" stroke="#ffffff" d="M 11 704 L 11 715 "/>
<path transform="matrix(1,0,0,-1,0,726)" stroke-width=".25" stroke-linecap="round" stroke-miterlimit="10" stroke-linejoin="miter" fill="none" stroke="#ffffff" d="M 11 715 L 11 715 "/>
</g>
</g>
</svg>
